<svg width="525" height="365" viewBox="0 0 525 365" fill="none" xmlns="http://www.w3.org/2000/svg">
<path d="M10.7917 364.019L36.9121 356.046L30.2585 351.585L10.7917 364.019Z" fill="#845DB7"/>
<path d="M59.1251 336.28L55.8255 347.458L88.7184 333.021L59.1251 336.28Z" fill="#5E21AD"/>
<path d="M114.749 311.76L116.221 320.778L150.691 297.899L114.749 311.76Z" fill="#5E21AD"/>
<path d="M93.3735 321.269L88.7184 333.021L116.221 320.778L93.3735 321.269Z" fill="#7E40D0"/>
<path d="M30.2585 351.585L55.8255 347.458L59.1251 336.28L30.2585 351.585Z" fill="#491B86"/>
<path d="M59.1251 336.28L88.7184 333.021L93.3735 321.269L59.1251 336.28Z" fill="#571FA0"/>
<path d="M93.3735 321.269L116.221 320.778L114.749 311.76L93.3735 321.269Z" fill="#3E1574"/>
<path d="M30.2585 351.585L36.9121 356.046L55.8255 347.458L30.2585 351.585Z" fill="#6324B6"/>
<path d="M114.749 311.76L150.691 297.899L168.555 274.332L114.749 311.76Z" fill="#341161"/>
<path d="M168.555 274.332L150.691 297.899L178.359 278.868L168.555 274.332Z" fill="#5E21AD"/>
<path d="M168.555 274.332L178.359 278.868L192.04 258.123L168.555 274.332Z" fill="#421879"/>
<path d="M192.04 258.123L178.359 278.868L214.518 254.714L192.04 258.123Z" fill="#5E21AD"/>
<path d="M192.04 258.123L214.518 254.714L243.736 223.921L192.04 258.123Z" fill="#3D0B7F"/>
<path d="M243.736 223.921L214.518 254.714L261.656 222.801L243.736 223.921Z" fill="#522989"/>
<path d="M243.736 223.921L261.656 222.801L284.932 207.137L243.736 223.921Z" fill="#3A1170"/>
<path d="M243.736 223.921L284.932 207.137L279.246 198.176L243.736 223.921Z" fill="#6129AB"/>
<path d="M279.246 198.176L284.932 207.137L343.631 186.244L279.246 198.176Z" fill="#5822A0"/>
<path d="M279.246 198.176L343.631 186.244L341.989 170.998L279.246 198.176Z" fill="#3D0B7F"/>
<path d="M341.989 170.998L343.631 186.244L369.553 191.515L341.989 170.998Z" fill="#33135C"/>
<path d="M398.766 178.882L369.553 191.515L391.616 195.292L398.766 178.882Z" fill="#33135C"/>
<path d="M341.989 170.998L369.553 191.515L398.766 178.882L341.989 170.998Z" fill="#5E21AD"/>
<path d="M403.639 273.993L405.328 226.175L402.613 229.059L364.43 275.662L356.803 295.277L403.639 273.993Z" fill="#999999"/>
<path d="M537.391 159.636L503.117 169.821L533.042 173.197L537.391 159.636Z" fill="#E7E7E7"/>
<path d="M494.918 204.668L523.575 193.154L517.69 182.408L494.918 204.668Z" fill="#999999"/>
<path d="M469.264 194.627L490.057 220.364L494.918 204.668L469.264 194.627Z" fill="#C4C4C4"/>
<path d="M503.117 169.821L517.69 182.408L533.042 173.197L503.117 169.821Z" fill="#D9D9D9"/>
<path d="M503.117 169.821L494.918 204.668L517.69 182.408L503.117 169.821Z" fill="#B3B3B3"/>
<path d="M469.264 194.627L494.918 204.668L503.117 169.821L469.264 194.627Z" fill="#A0A0A0"/>
<path d="M469.264 194.627L470.355 234.15L490.057 220.364L469.264 194.627Z" fill="#D1D1D1"/>
<path d="M406.793 186.244L398.836 214.703L437.3 195.92L431.737 189.259L406.793 186.244Z" fill="#8F4DE4"/>
<path d="M398.836 214.703L390.767 224.439L399.477 233.563L398.836 214.703Z" fill="#A060F5"/>
<path d="M394.932 198.949L390.767 224.439L398.836 214.703L394.932 198.949Z" fill="#8841E6"/>
<path d="M437.3 195.92L398.836 214.703L434.997 219.639L437.3 195.92Z" fill="#7522E2"/>
<path d="M406.793 186.244L394.932 198.949L398.836 214.703L406.793 186.244Z" fill="#7522E2"/>
<path d="M398.766 178.882L391.616 195.292L394.932 198.949L406.793 186.244L398.766 178.882Z" fill="#4A1B88"/>
<path d="M406.793 174.518V186.244L418.517 173.618L406.793 174.518Z" fill="#722CCD"/>
<path d="M438.255 183.734L431.737 189.259L437.3 195.92L438.255 183.734Z" fill="#792BE1"/>
<path d="M406.793 186.244L431.737 189.259C431.737 188.813 418.517 173.618 418.517 173.618L406.793 186.244Z" fill="#6729B8"/>
<path d="M434.285 176.133L418.517 173.618C418.517 173.618 431.737 188.813 431.737 189.259L438.255 183.734L434.285 176.133Z" fill="#7028D0"/>
<path d="M434.997 219.639L405.328 226.175L431.737 256.541L434.997 219.639Z" fill="#A3A3A3"/>
<path d="M431.737 256.541L405.328 226.175L403.639 273.993L431.737 256.541Z" fill="#B3B3B3"/>
<path d="M434.997 219.639L431.737 256.541L470.355 234.15L434.997 219.639Z" fill="#C4C4C4"/>
<path d="M434.997 219.639L470.355 234.15L469.264 194.627L434.997 219.639Z" fill="#A0A0A0"/>
<path d="M398.766 178.882L406.793 186.244V174.518L398.766 178.882Z" fill="#33135C"/>
<path d="M405.328 226.175L434.997 219.639L398.836 214.703L399.477 233.563L402.613 229.059L405.328 226.175Z" fill="#6825BF"/>
<path d="M10.8188 364.027L29.8829 351.764L0.42334 362.434L10.8188 364.027Z" fill="#D4D4D4"/>
<path d="M39.0398 298.04L12.3714 323.437L33.6874 325.861L39.0398 298.04Z" fill="#F9F9F9"/>
<path d="M39.0398 298.04L59.1925 284.169L56.3846 281.278L39.0398 298.04Z" fill="white"/>
<path d="M0.42334 362.434L29.8829 351.764L12.3714 323.437L0.42334 362.434Z" fill="#F4F4F4"/>
<path d="M33.6874 325.861L59.1925 336.474L46.5543 317.972L33.6874 325.861Z" fill="#F9F9F9"/>
<path d="M46.5543 317.972L93.36 321.31L95.1315 301.521L46.5543 317.972Z" fill="#E7E7E7"/>
<path d="M39.0398 298.04L46.5543 317.972L59.1925 284.169L39.0398 298.04Z" fill="#F2F2F2"/>
<path d="M39.0398 298.04L33.6874 325.861L46.5543 317.972L39.0398 298.04Z" fill="#E4E4E4"/>
<path d="M56.3846 281.278L59.1925 284.169L65.0662 273.301L63.0718 268.256L56.3846 281.278Z" fill="#E7E7E7"/>
<path d="M63.0718 268.256L65.0662 273.301L79.7969 262.328L63.0718 268.256Z" fill="white"/>
<path d="M63.0718 268.256L79.7969 262.328L76.7894 257.629L76.1112 258.154L63.0718 268.256Z" fill="#F2F2F2"/>
<path d="M76.7894 257.629L79.7969 262.328L89.5712 241.651L76.1112 258.154L76.7894 257.629Z" fill="white"/>
<path d="M89.5712 241.651L79.7969 262.328L95.0887 244.8L89.5712 241.651Z" fill="#F2F2F2"/>
<path d="M89.5712 241.651L95.0887 244.8L107.24 228.682L89.5712 241.651Z" fill="#F6F6F6"/>
<path d="M107.24 228.682L95.0887 244.8L120.846 224.333L107.24 228.682Z" fill="#C1C1C1"/>
<path fill-rule="evenodd" clip-rule="evenodd" d="M29.8829 351.764L12.3714 323.437L33.6874 325.861L29.8829 351.764Z" fill="#E7E7E7"/>
<path d="M29.8829 351.764L59.1925 336.474L33.6874 325.861L29.8829 351.764Z" fill="#D3D3D3"/>
<path d="M46.5543 317.972L59.1925 336.474L93.36 321.31L46.5543 317.972Z" fill="#DADADA"/>
<path d="M95.1315 301.521L93.36 321.31L114.762 311.752L95.1315 301.521Z" fill="#DADADA"/>
<path d="M95.1315 301.521L114.762 311.752V291.527L95.1315 301.521Z" fill="#C5C5C5"/>
<path d="M114.762 311.752L168.579 274.35L141.671 285.466L114.762 311.752Z" fill="#AFAFAF"/>
<path d="M114.762 291.527V311.752L141.671 285.466L114.762 291.527Z" fill="#D2D2D2"/>
<path d="M139.264 272.69L114.762 291.527L141.671 285.466L139.264 272.69Z" fill="#EEEEEE"/>
<path d="M168.579 274.35L139.264 272.69L141.671 285.466L168.579 274.35Z" fill="#DADADA"/>
<path d="M139.264 272.69L168.579 274.35L192.06 258.154L139.264 272.69Z" fill="#C8C8C8"/>
<path d="M139.264 272.69L192.06 258.154L167.423 248.131L139.264 272.69Z" fill="#D9D9D9"/>
<path d="M167.423 248.131L192.06 258.154L180.597 238.638L167.423 248.131Z" fill="#E7E7E7"/>
<path d="M180.597 238.638L192.06 258.154L243.729 223.983L180.597 238.638Z" fill="#D6D6D6"/>
<path d="M180.597 238.638L243.729 223.983L202.602 192.289L180.597 238.638Z" fill="#E7E7E7"/>
<path d="M107.24 228.682L120.846 224.333L128.856 211.765L107.24 228.682Z" fill="#D8D8D8"/>
<path d="M128.856 211.765L131.112 217.404L134.724 211.765H128.856Z" fill="#D0D0D0"/>
<path d="M128.856 211.765L120.846 224.333L131.112 217.404L128.856 211.765Z" fill="#DEDEDE"/>
<path d="M134.724 211.765L131.112 217.404L161.515 216.327C161.515 216.327 164.57 197.917 166.45 187.141L135.811 209.885L134.724 211.765Z" fill="#E7E7E7"/>
<path d="M166.45 187.141C164.57 197.917 161.515 216.327 161.515 216.327C182.884 211.986 202.602 192.289 202.602 192.289L166.45 187.141Z" fill="#D0D0D0"/>
<path d="M180.597 238.638L202.602 192.289C202.602 192.289 182.884 211.986 161.515 216.327C168.525 224.284 180.597 238.638 180.597 238.638Z" fill="#F3F3F3"/>
<path d="M166.45 187.141L202.602 192.289L203.444 158.752L166.45 187.141Z" fill="#DBDBDB"/>
<path d="M202.602 192.289L243.729 223.983L279.18 198.232L202.602 192.289Z" fill="#C9C9C9"/>
<path d="M203.444 158.752L202.602 192.289L232.174 162.126L203.444 158.752Z" fill="#E7E7E7"/>
<path d="M202.602 192.289L279.18 198.232L232.174 162.126L202.602 192.289Z" fill="#DCDCDC"/>
<path d="M203.444 158.752L232.174 162.126L228.403 140.775L203.444 158.752Z" fill="#D8D8D8"/>
<path d="M200.153 149.14L203.444 158.752L228.403 140.775L202.602 142.865L200.153 149.14Z" fill="#E7E7E7"/>
<path d="M228.403 140.775L256.639 139.007L232.145 108.968L228.403 140.775Z" fill="#DADADA"/>
<path d="M202.602 142.865L228.403 140.775L232.145 108.968L228.387 115.745L224.574 119.723L202.602 142.865Z" fill="#F9F9F9"/>
<path d="M228.403 140.775L232.174 162.126L256.639 139.007L228.403 140.775Z" fill="#CBCBCB"/>
<path d="M293.516 152.975L256.639 139.007L279.18 180.449L293.516 152.975Z" fill="#B4B4B4"/>
<path fill-rule="evenodd" clip-rule="evenodd" d="M232.174 162.126L279.18 180.449L256.639 139.007L232.174 162.126Z" fill="#C4C4C4"/>
<path fill-rule="evenodd" clip-rule="evenodd" d="M279.18 198.232L232.174 162.126L279.18 180.449V198.232Z" fill="#E1E1E1"/>
<path d="M279.18 198.232L341.667 171.079L279.18 180.449V198.232Z" fill="#D5D5D5"/>
<path d="M279.18 180.449L341.667 171.079L293.516 152.975L279.18 180.449Z" fill="#C5C5C5"/>
<path d="M293.516 152.975L341.667 171.079L323.694 150.715L293.516 152.975Z" fill="#D6D6D6"/>
<path fill-rule="evenodd" clip-rule="evenodd" d="M305.72 130.352L256.639 139.007L293.516 152.975L305.72 130.352Z" fill="#E5E5E5"/>
<path d="M323.694 150.715L305.72 130.352L293.516 152.975L323.694 150.715Z" fill="#DDDDDD"/>
<path d="M351.799 145.593L341.667 171.079L398.78 178.906L351.799 145.593Z" fill="#E7E7E7"/>
<path d="M323.694 150.715L351.799 145.593L327.237 132.501L323.694 150.715Z" fill="#E7E7E7"/>
<path d="M385.563 145.593L405.33 114.286L381.617 118.986L385.563 145.593Z" fill="#E7E7E7"/>
<path d="M385.563 145.593L409.483 125.329L405.33 114.286L385.563 145.593Z" fill="#C7C7C7"/>
<path d="M409.483 125.329L397.523 158.862L422.226 132.746L409.483 125.329Z" fill="#CCCCCC"/>
<path d="M397.523 158.862L418.528 173.726L422.226 132.746L397.523 158.862Z" fill="#B9B9B9"/>
<path d="M397.523 158.862L406.85 174.591L418.528 173.726L397.523 158.862Z" fill="#C4C4C4"/>
<path d="M385.563 145.593L398.78 178.906L406.85 174.591L397.523 158.862L385.563 145.593Z" fill="#E7E7E7"/>
<path d="M385.563 145.593L397.523 158.862L409.483 125.329L385.563 145.593Z" fill="#D5D5D5"/>
<path d="M351.799 145.593L398.78 178.906L385.563 145.593H351.799Z" fill="#EDEDED"/>
<path d="M323.694 150.715L341.667 171.079L351.799 145.593L323.694 150.715Z" fill="#D6D4D4"/>
<path d="M305.72 130.352L323.694 150.715L327.237 132.501L305.72 130.352Z" fill="#E7E7E7"/>
<path d="M330.781 114.286L305.72 130.352L327.237 132.501L330.781 114.286Z" fill="#DEDDDD"/>
<path d="M330.781 114.286L327.237 132.501L354.621 125.329L330.781 114.286Z" fill="#C2C2C2"/>
<path d="M327.237 132.501L351.799 145.593L354.621 125.329L327.237 132.501Z" fill="#C1C1C1"/>
<path d="M354.621 125.329L385.563 145.593L381.617 118.986L354.621 125.329Z" fill="#CCCCCC"/>
<path d="M354.621 125.329L351.799 145.593H385.563L354.621 125.329Z" fill="#DFDFDF"/>
<path d="M354.621 125.329L381.617 118.986L368.236 108.369L354.621 125.329Z" fill="#D4D3D3"/>
<path d="M330.781 114.286L368.236 108.369L351.612 92.4629L330.781 114.286Z" fill="#DCDCDC"/>
<path d="M330.781 114.286L354.621 125.329L368.236 108.369L330.781 114.286Z" fill="#E1E1E1"/>
<path d="M346.841 76.2501L351.612 92.4629L362.19 90.0162L354.621 80.9923L346.841 76.2501Z" fill="#878787"/>
<path d="M368.236 108.369L384.86 94.2075L362.19 90.0162L351.612 92.4629L368.236 108.369Z" fill="#B0B0B0"/>
<path d="M381.617 118.986L384.86 94.2075L368.236 108.369L381.617 118.986Z" fill="#BABABA"/>
<path d="M381.617 118.986L394.072 104.135L384.86 94.2075L381.617 118.986Z" fill="#E7E7E7"/>
<path d="M381.617 118.986L405.33 114.286L394.072 104.135L381.617 118.986Z" fill="#DDDDDD"/>
<path d="M394.072 104.135L401.073 90.0162L384.86 94.2075L394.072 104.135Z" fill="#E7E7E7"/>
<path d="M401.073 90.0162L404.868 99.9003L407.715 93.1L407.082 86.2997L401.073 90.0162Z" fill="#F7F7F7"/>
<path d="M394.072 104.135L404.868 99.9003L401.073 90.0162L394.072 104.135Z" fill="#EFEFEF"/>
<path d="M362.19 90.0162L388.204 91.1271L391.066 75.1499L362.19 90.0162Z" fill="#E7E7E7"/>
<path d="M362.19 90.0162L384.86 94.2075L388.204 91.1271L362.19 90.0162Z" fill="#CBCBCB"/>
<path d="M346.841 76.2501L354.621 80.9923L362.19 90.0162L391.066 75.1499L346.841 76.2501Z" fill="#D9D8D8"/>
<path d="M378.407 54.4393L387.653 60.6291L386.646 56.5791L378.407 54.4393Z" fill="white"/>
<path d="M366.074 48.7382C366.011 49.0146 370.207 50.7632 374.312 52.5734C375.751 53.208 377.179 53.8501 378.407 54.4393L373.869 48.2532L366.074 48.7382Z" fill="white"/>
<path d="M232.145 108.968L256.639 139.007L268.118 109.056L232.145 108.968Z" fill="#F3F3F3"/>
<path d="M208.363 83.9135L237.573 61.8008L202.75 63.3801L208.363 83.9135Z" fill="white"/>
<path d="M237.573 61.8008L262.635 52.1962L224.557 43.6123L237.573 61.8008Z" fill="white"/>
<path d="M202.75 63.3801L237.573 61.8008L224.557 43.6123L213.602 53.456L202.75 63.3801Z" fill="#F3F3F3"/>
<path d="M241.636 78.912L262.635 52.1962L237.573 61.8008L241.636 78.912Z" fill="#F3F3F3"/>
<path d="M208.363 83.9135L241.636 78.912L237.573 61.8008L208.363 83.9135Z" fill="#E8E8E8"/>
<path d="M216.727 91.6517L241.636 78.912L208.363 83.9135L216.727 91.6517Z" fill="#F3F3F3"/>
<path d="M232.145 108.968L256.639 96.2416L216.727 91.6517L232.145 108.968Z" fill="#E7E7E7"/>
<path d="M216.727 91.6517L256.639 96.2416L241.636 78.912L216.727 91.6517Z" fill="#D1D1D1"/>
<path d="M232.145 108.968L268.118 109.056L256.639 96.2416L232.145 108.968Z" fill="#F1F1F1"/>
<path d="M241.636 78.912L261.894 82.2073L262.635 52.1962L241.636 78.912Z" fill="#D9D9D9"/>
<path d="M256.639 96.2416L283.617 98.4385L261.894 82.2073L256.639 96.2416Z" fill="#C9C9C9"/>
<path d="M261.894 82.2073L298.229 88.5952L286.629 65.7544L261.894 82.2073Z" fill="#D9D9D9"/>
<path d="M261.894 82.2073L286.629 65.7544L262.635 52.1962L261.894 82.2073Z" fill="#F3F3F3"/>
<path d="M241.636 78.912L256.639 96.2416L261.894 82.2073L241.636 78.912Z" fill="#F3F3F3"/>
<path d="M256.639 96.2416L268.118 109.056L283.617 98.4385L256.639 96.2416Z" fill="#D7D7D7"/>
<path d="M261.894 82.2073L283.617 98.4385L298.229 88.5952L261.894 82.2073Z" fill="#F7F7F7"/>
<path d="M300.873 73.2952L298.229 88.5952L305.237 83.8142L300.873 73.2952Z" fill="#E7E7E7"/>
<path d="M286.629 65.7544L298.229 88.5952L300.873 73.2952L286.629 65.7544Z" fill="#F7F7F7"/>
<path d="M300.873 73.2952L305.237 83.8142L312.283 75.1499L300.873 73.2952Z" fill="#E7E7E7"/>
<path d="M316.351 65.7544L300.873 73.2952L312.283 75.1499L316.351 65.7544Z" fill="#F7F7F7"/>
<path d="M325.767 65.7544H316.351L329.652 74.6886L325.767 65.7544Z" fill="#E2E2E2"/>
<path d="M312.283 75.1499L323.694 77.0047L316.351 65.7544L312.283 75.1499Z" fill="#E7E7E7"/>
<path d="M323.694 77.0047L338.57 71.2217L329.652 74.6886L323.694 77.0047Z" fill="#D5D5D5"/>
<path d="M305.237 83.8142L323.694 77.0047L312.283 75.1499L305.237 83.8142Z" fill="#DEDEDE"/>
<path d="M316.351 65.7544L323.694 77.0047L329.652 74.6886L316.351 65.7544Z" fill="#DDDDDD"/>
<path d="M329.652 74.6886L338.57 71.2217L333.716 67.6756L325.767 65.7544L329.652 74.6886Z" fill="#9B9B9B"/>
<path d="M351.612 55.212L338.57 71.2217L346.841 76.2501L351.612 55.212Z" fill="#E7E7E7"/>
<path d="M366.074 48.7382L361.463 67.6756L378.407 54.4393C377.179 53.8501 375.751 53.208 374.312 52.5734C370.207 50.7632 366.011 49.0146 366.074 48.7382Z" fill="#E7E7E7"/>
<path d="M387.653 67.6756V60.6291L361.463 67.6756H387.653Z" fill="#CDCDCD"/>
<path d="M378.407 54.4393L361.463 67.6756L387.653 60.6291L378.407 54.4393Z" fill="#E0E0E0"/>
<path d="M387.653 67.6756H361.463L391.066 75.1499L387.653 67.6756Z" fill="#A8A8A8"/>
<path d="M361.463 67.6756L346.841 76.2501L391.066 75.1499L361.463 67.6756Z" fill="#E7E7E7"/>
<path d="M351.612 55.212L361.463 67.6756V47.6181L351.612 55.212Z" fill="#E7E7E7"/>
<path d="M361.463 47.6181V67.6756L366.074 48.7382L361.463 47.6181Z" fill="#EEEEEE"/>
<path d="M346.841 76.2501L361.463 67.6756L351.612 55.212L346.841 76.2501Z" fill="#D9D9D9"/>
<path d="M338.57 71.2217L351.612 55.212H343.63L338.57 71.2217Z" fill="#DEDDDD"/>
<path fill-rule="evenodd" clip-rule="evenodd" d="M333.716 67.6756L325.767 65.7544L343.63 55.212L333.716 67.6756Z" fill="#F0F0F0"/>
<path d="M338.57 71.2217L343.63 55.212L333.716 67.6756L338.57 71.2217Z" fill="#C9C9C9"/>
<path d="M300.873 73.2952L316.351 65.7544L315.96 61.8008L300.873 73.2952Z" fill="white"/>
<path d="M325.767 65.7544L343.63 55.212L323.694 56.6654L325.767 65.7544Z" fill="#FAFAFA"/>
<path d="M316.351 65.7544H325.767L323.694 56.6654L315.96 61.8008L316.351 65.7544Z" fill="#F5F5F5"/>
<path d="M193.935 3.9899V14.3343L201.679 0.0428467L193.935 3.9899Z" fill="white"/>
<path d="M167.187 45.7879L161.834 35.662L130.467 54.344L167.187 45.7879Z" fill="white"/>
<path d="M173.02 42.0267L181.013 22.489L172.421 29.6101L173.02 42.0267Z" fill="white"/>
<path d="M181.013 22.489L193.935 14.3343V3.9899L181.013 22.489Z" fill="#DEDEDE"/>
<path d="M167.187 45.7879L172.421 29.6101L161.834 35.662L167.187 45.7879Z" fill="#F2F2F2"/>
<path d="M140.101 84.9437L128.571 70.0532L110.136 87.6761L140.101 84.9437Z" fill="#A6A6A6"/>
<path d="M102.474 115.881L92.8133 103.222L86.5949 125.32L102.474 115.881Z" fill="#B8B8B8"/>
<path d="M167.187 45.7879L130.467 54.344L142.573 56.536L165.986 55.5254L167.187 45.7879Z" fill="#BDBDBD"/>
<path d="M181.445 59.808L202.75 63.3801L182.59 52.6517L181.445 59.808Z" fill="#A8A8A8"/>
<path d="M165.986 55.5254L142.573 56.536L142.459 71.99L152.997 65.2114L165.986 55.5254Z" fill="#B8B8B8"/>
<path d="M142.459 71.99L142.573 56.536L128.571 70.0532L142.459 71.99Z" fill="#A3A3A3"/>
<path d="M142.459 71.99L128.571 70.0532L140.101 84.9437L142.459 71.99Z" fill="#B8B8B8"/>
<path d="M140.101 84.9437L110.136 87.6761L127.014 102.112L140.101 84.9437Z" fill="#999999"/>
<path d="M102.474 115.881L110.136 87.6761L92.8133 103.222L102.474 115.881Z" fill="#C4C4C4"/>
<path d="M127.014 102.112L110.136 87.6761L102.474 115.881L127.014 102.112Z" fill="#B3B3B3"/>
<path d="M140.101 84.9437L127.014 102.112L147.056 96.7041L147.702 94.9188L140.101 84.9437Z" fill="#A1A1A1"/>
<path d="M147.702 94.9188L147.056 96.7041L145.382 101.008H156.428L147.702 94.9188Z" fill="#DBDBDB"/>
<path d="M174.568 88.905L156.428 101.008L180.678 89.3898L174.568 88.905Z" fill="#ADADAD"/>
<path d="M224.574 119.723L228.387 115.745L202.647 89.3898L224.574 119.723Z" fill="#C9C9C9"/>
<path d="M202.647 89.3898L199.753 93.3676L224.574 119.723L202.647 89.3898Z" fill="#DEDEDE"/>
<path d="M202.647 89.3898H180.678L199.753 93.3676L202.647 89.3898Z" fill="#B8B8B8"/>
<path d="M175.64 82.7887L180.678 89.3898H202.647L175.64 82.7887Z" fill="#C9C9C9"/>
<path d="M175.64 82.7887L202.647 89.3898L190.638 75.6143L175.64 82.7887Z" fill="#E7E7E7"/>
<path d="M190.638 75.6143L202.647 89.3898V76.281L191.141 73.9408L190.638 75.6143Z" fill="#E7E7E7"/>
<path d="M147.702 94.9188L156.428 101.008L174.568 88.905L147.702 94.9188Z" fill="#EDEDED"/>
<path d="M174.568 88.905L180.678 89.3898L175.64 82.7887L174.568 88.905Z" fill="#969696"/>
<path d="M173.02 42.0267L172.421 29.6101L167.187 45.7879L173.02 42.0267Z" fill="#E7E7E7"/>
<path d="M173.02 42.0267L186.606 48.8627L181.013 22.489L173.02 42.0267Z" fill="#E7E7E7"/>
<path d="M202.647 42.7396L193.935 14.3343L186.606 48.8627L202.647 42.7396Z" fill="#E7E7E7"/>
<path d="M193.935 14.3343L181.013 22.489L186.606 48.8627L193.935 14.3343Z" fill="white"/>
<path d="M216.801 7.09102L193.935 14.3343L202.647 42.7396L216.801 7.09102Z" fill="#DEDEDE"/>
<path d="M202.647 42.7396L226.644 25.92L216.801 7.09102L202.647 42.7396Z" fill="#E7E7E7"/>
<path d="M226.644 25.92L228.731 8.22783L216.801 7.09102L226.644 25.92Z" fill="#F2F2F2"/>
<path d="M186.606 48.8627L182.59 52.6517L202.75 63.3801L201.969 56.536L186.606 48.8627Z" fill="#DEDEDE"/>
<path d="M202.647 42.7396L201.969 56.536L213.602 53.456L202.647 42.7396Z" fill="#E7E7E7"/>
<path d="M201.969 56.536L202.75 63.3801L213.602 53.456L201.969 56.536Z" fill="#D6D6D6"/>
<path d="M202.647 42.7396L186.606 48.8627L201.969 56.536L202.647 42.7396Z" fill="#D1D1D1"/>
<path d="M224.557 43.6123L202.647 42.7396L213.602 53.456L224.557 43.6123Z" fill="#CCCCCC"/>
<path d="M202.647 42.7396L224.557 43.6123L226.644 25.92L202.647 42.7396Z" fill="#F2F2F2"/>
<path d="M224.557 43.6123L254.984 23.6626L228.731 8.22783L226.644 25.92L224.557 43.6123Z" fill="#F5F5F5"/>
<path d="M254.984 23.6626L252.592 10.4999L228.731 8.22783L254.984 23.6626Z" fill="white"/>
<path d="M284.548 10.4999L272.617 15.4708L276.03 37.4304L284.548 10.4999Z" fill="#FCFCFC"/>
<path d="M276.03 37.4304L295.421 35.3484L296.989 30.9405L284.548 10.4999L276.03 37.4304Z" fill="#F2F2F2"/>
<path d="M254.984 23.6626L272.617 15.4708L252.592 10.4999L254.984 23.6626Z" fill="#FAFAFA"/>
<path d="M276.03 37.4304L272.617 15.4708L254.984 23.6626L276.03 37.4304Z" fill="#E7E7E7"/>
<path d="M224.557 43.6123C226.515 44.0538 246.761 41.063 256.639 39.5124L254.984 23.6626L224.557 43.6123Z" fill="#D6D6D6"/>
<path d="M224.557 43.6123L262.635 52.1962L256.639 39.5124C246.761 41.063 226.515 44.0538 224.557 43.6123Z" fill="#EDEDED"/>
<path d="M254.984 23.6626L256.639 39.5124L276.03 37.4304L254.984 23.6626Z" fill="#DBDBDB"/>
<path d="M256.639 39.5124L262.635 52.1962L295.421 35.3484L276.03 37.4304L256.639 39.5124Z" fill="#E0E0E0"/>
<path d="M422.226 132.746L418.528 173.726L436.637 153.182L422.226 132.746Z" fill="#D5D5D5"/>
<path d="M418.528 173.726L434.252 176.198L442.476 180.449L436.637 153.182L418.528 173.726Z" fill="#E7E7E7"/>
<path d="M422.226 132.746L436.637 153.182L444.471 129.415L422.226 132.746Z" fill="#E7E7E7"/>
<path d="M451.717 105.894L478.353 110.065V103.259L451.717 105.894Z" fill="white"/>
<path d="M451.717 105.894L475.259 114.286L478.353 110.065L451.717 105.894Z" fill="#F4F4F4"/>
<path d="M434.833 220.042L459.018 202.234L446.573 194.714L434.833 220.042Z" fill="#C5C5C5"/>
<path d="M437.226 195.848L434.833 220.042L446.573 194.714L437.226 195.848Z" fill="#E7E7E7"/>
<path d="M503.101 169.924L470.31 173.481L469.233 194.714L503.101 169.924Z" fill="#BBBBBB"/>
<path d="M469.233 194.714L470.31 173.481L456.393 176.965L469.233 194.714Z" fill="#B4B4B4"/>
<path d="M459.018 202.234L469.233 194.714L456.393 176.965L459.018 202.234Z" fill="#A3A3A3"/>
<path d="M446.573 194.714L459.018 202.234L456.393 176.965L446.573 194.714Z" fill="#C1C1C1"/>
<path d="M506.194 144.093L470.31 173.481L503.101 169.924L506.863 148.189L506.194 144.093Z" fill="#C9C9C9"/>
<path d="M506.194 144.093L459.018 145.593L470.31 173.481L506.194 144.093Z" fill="#E7E7E7"/>
<path d="M438.235 183.751L437.226 195.848L446.573 194.714L442.476 180.449L438.235 183.751Z" fill="#DBDBDB"/>
<path d="M456.393 176.965L442.476 180.449L446.573 194.714L456.393 176.965Z" fill="#D0D0D0"/>
<path d="M444.471 129.415L436.637 153.182L459.018 145.593L444.471 129.415Z" fill="#CECECE"/>
<path d="M459.018 145.593L442.476 180.449L456.393 176.965L470.31 173.481L459.018 145.593Z" fill="#E1E1E1"/>
<path d="M436.637 153.182L442.476 180.449L459.018 145.593L436.637 153.182Z" fill="#DCDCDC"/>
<path d="M451.717 105.894L422.226 132.746L444.471 129.415L451.717 105.894Z" fill="#DDDDDD"/>
<path d="M475.259 114.286L444.471 129.415L459.018 145.593L475.259 114.286Z" fill="#DEDEDE"/>
<path d="M482.065 122.284L459.018 145.593L506.194 144.093L482.065 122.284Z" fill="#F0F0F0"/>
<path d="M475.259 114.286L459.018 145.593L482.065 122.284L475.259 114.286Z" fill="#D1D1D1"/>
<path d="M475.259 114.286L451.717 105.894L444.471 129.415L475.259 114.286Z" fill="#E7E7E7"/>
<path d="M438.235 183.751L442.476 180.449L434.252 176.198L438.235 183.751Z" fill="#D0D0D0"/>
<path d="M46.3859 318.196L67.8117 292.228L56.3484 288.059L46.3859 318.196Z" fill="#BC96FF"/>
<path d="M46.3859 318.196L94.9998 302.072L67.8117 292.228L46.3859 318.196Z" fill="#9546FC"/>
<path d="M85.875 272.08L94.9998 302.072L114.588 292.228L85.875 272.08Z" fill="#9546FC"/>
<path d="M64.8399 273.081L67.8117 292.228L85.875 272.08L64.8399 273.081Z" fill="#BC96FF"/>
<path d="M56.3484 288.059L67.8117 292.228L64.8399 273.081L56.3484 288.059Z" fill="#D9C4FF"/>
<path d="M67.8117 292.228L94.9998 302.072L85.875 272.08L67.8117 292.228Z" fill="#771DEC"/>
<path d="M85.875 272.08L114.588 292.228L109.409 250.804L85.875 272.08Z" fill="#771DEC"/>
<path d="M109.409 250.804L114.588 292.228L138.84 273.081L109.409 250.804Z" fill="#862AFC"/>
<path d="M129.644 233.956L138.84 273.081L167.423 248.712L129.644 233.956Z" fill="#6B18D8"/>
<path d="M79.4535 261.887L85.875 272.08L109.409 250.804L79.4535 261.887Z" fill="#A15CFA"/>
<path d="M64.8399 273.081L85.875 272.08L79.4535 261.887L64.8399 273.081Z" fill="#D9C4FF"/>
<path d="M109.409 250.804L138.84 273.081L129.644 233.956L109.409 250.804Z" fill="#771DEC"/>
<path d="M129.644 233.956L167.423 248.712L161.968 216.11L129.644 233.956Z" fill="#691CCE"/>
<path d="M167.423 248.712L181.566 238.831L161.968 216.11L167.423 248.712Z" fill="#571CA5"/>
<path d="M129.644 233.956L161.968 216.11L130.445 217.425L129.644 233.956Z" fill="#9A4DFC"/>
<path d="M114.588 228.711L129.644 233.956L130.445 217.425L114.588 228.711Z" fill="#AF74FB"/>
<path d="M114.588 228.711L109.409 250.804L129.644 233.956L114.588 228.711Z" fill="#862AFC"/>
<path d="M94.9998 244.787L109.409 250.804L114.588 228.711L94.9998 244.787Z" fill="#8E58F1"/>
<path d="M79.4535 261.887L109.409 250.804L94.9998 244.787L79.4535 261.887Z" fill="#BC96FF"/>
<path d="M255.854 139.791L277.211 118.461L268.31 108.875L255.854 139.791Z" fill="#C69EF9"/>
<path d="M283.374 98.6037L277.211 118.461L289.024 106.992L283.374 98.6037Z" fill="#CCAEF3"/>
<path d="M255.854 139.791L305.458 130.957L277.211 118.461L255.854 139.791Z" fill="#9747FF"/>
<path d="M268.31 108.875L277.211 118.461L283.374 98.6037L268.31 108.875Z" fill="#A871F0"/>
<path d="M277.211 118.461L308.882 114.353L289.024 106.992L277.211 118.461Z" fill="#A871F0"/>
<path d="M297.925 88.6745L289.024 106.992L309.909 93.6389L297.925 88.6745Z" fill="#C19BF1"/>
<path d="M283.374 98.6037L289.024 106.992L297.925 88.6745L283.374 98.6037Z" fill="#955DDE"/>
<path d="M289.024 106.992L308.882 114.353L309.909 93.6389L289.024 106.992Z" fill="#8533EE"/>
<path d="M277.211 118.461L305.458 130.957L308.882 114.353L277.211 118.461Z" fill="#8533EE"/>
<path d="M308.882 114.353L305.458 130.957L330.452 114.353H308.882Z" fill="#6E1CDA"/>
<path d="M331.307 100.487L330.452 114.353L351.508 92.4406L331.307 100.487Z" fill="#611FB6"/>
<path d="M308.882 114.353H330.452L331.307 100.487L308.882 114.353Z" fill="#782CD9"/>
<path d="M308.882 114.353L331.307 100.487L309.909 93.6389L308.882 114.353Z" fill="#9747FF"/>
<path d="M297.925 88.6745L309.909 93.6389L305.458 83.8808L297.925 88.6745Z" fill="#955DDE"/>
<path d="M309.909 93.6389L321.378 78.0604L305.458 83.8808L309.909 93.6389Z" fill="#7939CC"/>
<path d="M328.74 81.142L338.669 71.3842L321.378 78.0604L309.909 93.6389L328.74 81.142Z" fill="#782CD9"/>
<path d="M331.307 100.487L351.508 92.4406L347.057 76.3487L331.307 100.487Z" fill="#581AA7"/>
<path d="M331.307 100.487L347.057 76.3487L328.74 81.142L331.307 100.487Z" fill="#6E1CDA"/>
<path d="M309.909 93.6389L331.307 100.487L328.74 81.142L309.909 93.6389Z" fill="#782CD9"/>
<path d="M328.74 81.142L347.057 76.3487L338.669 71.3842L328.74 81.142Z" fill="#8533EE"/>
<path d="M228.388 115.776L232.164 108.964L216.721 91.6319L228.388 115.776Z" fill="#6129AB"/>
<path d="M228.388 115.776L216.721 91.6319L202.627 89.3941L228.388 115.776Z" fill="#33135C"/>
<path d="M202.627 89.3941L216.721 91.6319L208.358 83.8762L202.627 89.3941Z" fill="#3D0B7F"/>
<path d="M202.627 76.3215L208.358 83.8762L202.76 63.3742L202.627 76.3215Z" fill="#6129AB"/>
<path d="M202.627 89.3941L208.358 83.8762L202.627 76.3215V89.3941Z" fill="#33135C"/>
<path d="M202.627 76.3215L202.76 63.3742L191.151 74.0141L202.627 76.3215Z" fill="#33135C"/>
<path d="M173.019 41.9956L182.596 52.6513L186.642 48.8747L173.019 41.9956Z" fill="#A870F3"/>
<path d="M167.152 45.7723L182.596 52.6513L173.019 41.9956L167.152 45.7723Z" fill="#9647FE"/>
<path d="M165.938 55.4838L182.596 52.6513L167.152 45.7723L165.938 55.4838Z" fill="#8841E6"/>
<path d="M181.449 59.7997L182.596 52.6513L165.938 55.4838L181.449 59.7997Z" fill="#6129AB"/>
<path d="M179.493 68.7696L181.449 59.7997L165.938 55.4838L179.493 68.7696Z" fill="#722CCD"/>
<path d="M179.493 68.7696L165.938 55.4838V66.0046L179.493 68.7696Z" fill="#7C37D6"/>
<path d="M191.151 74.0141L181.449 59.7997L179.493 68.7696L191.151 74.0141Z" fill="#6129AB"/>
<path d="M191.151 74.0141L202.76 63.3742L181.449 59.7997L191.151 74.0141Z" fill="#4A1B88"/>
<path d="M140.029 84.9292L149.665 82.7972L142.417 71.9578L140.029 84.9292Z" fill="#8841E6"/>
<path d="M147.669 94.9563L149.665 82.7972L140.029 84.9292L147.669 94.9563Z" fill="#A05FF4"/>
<path d="M147.669 94.9563L161.858 92.2197L149.665 82.7972L147.669 94.9563Z" fill="#6129AB"/>
<path d="M149.665 82.7972L161.858 92.2197L163.527 78.7906L149.665 82.7972Z" fill="#7333C7"/>
<path d="M149.665 82.7972L163.527 78.7906L152.921 65.1935L149.665 82.7972Z" fill="#8841E6"/>
<path d="M142.417 71.9578L149.665 82.7972L152.921 65.1935L142.417 71.9578Z" fill="#A05FF4"/>
<path d="M174.567 88.9082L175.649 82.7972L161.858 92.2197L174.567 88.9082Z" fill="#351067"/>
<path d="M175.649 82.7972L165.938 66.0046L163.527 78.7906L175.649 82.7972Z" fill="#3E1671"/>
<path d="M190.621 75.6485L191.151 74.0141L179.493 68.7696L175.649 82.7972L190.621 75.6485Z" fill="#4A1B88"/>
<path d="M152.921 65.1935L163.527 78.7906L165.938 66.0046L152.921 65.1935Z" fill="#5A21A3"/>
<path d="M165.938 66.0046V55.4838L152.921 65.1935L165.938 66.0046Z" fill="#4A1B88"/>
<path d="M175.649 82.7972L179.493 68.7696L165.938 66.0046L175.649 82.7972Z" fill="#6129AB"/>
<path d="M161.858 92.2197L175.649 82.7972L163.527 78.7906L161.858 92.2197Z" fill="#44177D"/>
</svg>
